<svg xmlns="http://www.w3.org/2000/svg" xmlns:xlink="http://www.w3.org/1999/xlink" width="372" height="485" viewBox="0 0 372 485"><defs><clipPath id="a"><rect width="372" height="485" fill="#fff"/></clipPath></defs><g clip-path="url(#a)"><path d="M368.18,57.515a13.485,13.485,0,0,0-6.064-1.732,38.276,38.276,0,0,0-11.1,1.456c-.748.2-1.5.354-2.324.512-.275.079-.551.118-.866.2V57.83c.158-.236.2-.354.276-.472a41.779,41.779,0,0,1,5.513-6.653,42.749,42.749,0,0,0,4.764-5.433c2.284-3.228,1.772-6.338-1.417-9.015a9.291,9.291,0,0,0-9.884-1.417c-.394.157-.748.315-1.181.512l-.394.158v-.748c.591-3.425,1.221-6.85,1.851-10.235.157-.787.315-1.575.472-2.4.236-1.22.512-2.48.709-3.74v-.315c.433-2.441.354-2.559-2.087-3.268l-.394-.118c-5.119-1.5-10.592-2.992-16.223-4.527-5.041-1.378-10.12-2.677-15.043-3.9-3.229-.787-6.536-1.575-9.726-2.283l-4.292-.984c-4.174-.984-8.466-1.968-12.719-2.913a3.63,3.63,0,0,0-2.126.157c-3.584,1.811-7.246,3.661-10.79,5.433-2.717,1.378-5.434,2.756-8.151,4.094a4.182,4.182,0,0,0-2.205,2.716,12.354,12.354,0,0,0-.355,1.653,3.088,3.088,0,0,1-.118.59c-.2,1.142-.393,2.283-.63,3.464-.433,2.48-.866,5.039-1.417,7.519-.433,1.929-.906,3.9-1.379,5.826-.472,1.968-.984,3.976-1.417,5.984-.473,2.165-.985,3.937-2.953,4.882h-.079c-1.182,1.3-2.442,2.519-3.662,3.7-2.678,2.677-5.434,5.393-7.915,8.346-6.616,7.873-11.577,16.888-15.515,24.683a144.644,144.644,0,0,0-8.584,22.085c-2.4,7.716-4.411,15.55-6.458,23.542-1.851,7.44-3.19,13.5-4.214,19.053-1.732,9.645-3.071,19.92-4.174,31.336a3.455,3.455,0,0,1-.157.788.289.289,0,0,1-.04.2L191.493,165.1c.079-.2.2-.394.276-.551a10.993,10.993,0,0,0,.59-1.181l.158-.355c.748-1.811,1.536-3.7,2.245-5.59a3.745,3.745,0,0,0,.2-1.771,7.027,7.027,0,0,0-3.268-5.2,7.293,7.293,0,0,0-6.1-.945,16.851,16.851,0,0,0-5.789,2.953,19.024,19.024,0,0,1-1.929,1.456c-.237.2-.512.355-.788.552l-13.861-9.842-.118.118s-.236.2-.354.315a7.814,7.814,0,0,0-.867.787c-.512.63-1.063,1.26-1.575,1.89l-1.063,1.3c-2.126,2.559-4.253,5.118-6.379,7.637-4.765,5.748-9.726,11.653-14.57,17.518-1.654,2.008-3.111,4.016-4.331,5.748-.394.551-.512.945-.394,1.3s.433.63,1.063.906c1.024.433,2.048.787,3.032,1.1,4.213,1.3,7.679,1.22,10.908-.2a2.592,2.592,0,0,1,.787-.2h.236l.119.2c.118.236.2.472.315.709l1.614,3.858c1.339,3.188,2.638,6.377,4.017,9.566l.118.275A3.7,3.7,0,0,0,156.8,199a1.382,1.382,0,0,0,1.772-.158l2.835-2.913,1.142,1.771c.945,1.457,1.85,2.914,2.795,4.331a23.271,23.271,0,0,0,4.529,5.393c2.481,2.008,5.04,2.48,7.639,1.457a14.8,14.8,0,0,0,5-3.15,5.812,5.812,0,0,1,.748-.63.712.712,0,0,1,.276-.2,2.571,2.571,0,0,1,.315.354,8.845,8.845,0,0,1,.827.945c1.142,1.417,2.244,2.873,3.386,4.291,1.5,1.889,2.993,3.779,4.489,5.629A187.893,187.893,0,0,1,205.945,234.9a3.411,3.411,0,0,1,.2.591,3.115,3.115,0,0,1-.63-.315c-.67-.355-1.26-.67-1.812-1.024-6.733-4.37-14.176-7.558-21.382-10.668l-.315-.158c-3.308-1.417-6.694-2.755-10-4.015-1.969-.748-3.977-1.535-5.985-2.362a170.144,170.144,0,0,0-20.28-6.771c-7.8-2.047-16.184-4.055-24.965-4.567a74.581,74.581,0,0,0-15.909.355l-.708.118c-3.387.511-6.891,1.063-10.278,1.81l-.984.2a65.664,65.664,0,0,0-9.805,2.638,135.95,135.95,0,0,0-14.845,6.732,85.273,85.273,0,0,0-10.986,7.046c-2.678,1.929-3.544,6.26-1.89,9.409a10.093,10.093,0,0,0,8.742,5.826,32.669,32.669,0,0,0,17.72-3.385,8.523,8.523,0,0,1,1.772-.591l.512-.118a1.719,1.719,0,0,1-.394.591l-.079.078c-.512.709-1.063,1.378-1.615,2.047-1.26,1.575-2.52,3.189-3.662,4.882-1.89,2.834-3.662,5.826-5.355,8.7l-1.181,1.968a55.35,55.35,0,0,0-5.867,12.322c-1.142,3.819-.748,6.693,1.181,9.015,3.032,3.583,7.245,4.252,11.538,1.85a20.538,20.538,0,0,0,6.576-5.747c1.024-1.378,2.048-2.835,3.032-4.212.473-.709.984-1.378,1.5-2.087.276-.393.591-.787.906-1.26l.158-.236V268.6a29.766,29.766,0,0,0,3.583,12.519c.827,1.614,1.654,3.228,2.52,4.881l1.063,2.126c-.433.788-.827,1.614-1.26,2.4-.945,1.771-1.89,3.621-2.835,5.393-1.142,2.126-2.284,4.212-3.426,6.3-1.575,2.873-3.19,5.865-4.765,8.818-1.654,3.11-3.268,6.18-4.883,9.29-1.5,2.874-2.993,5.748-4.529,8.622-.827,1.535-1.693,3.11-2.52,4.645-1.3,2.323-2.638,4.763-3.859,7.2-3.544,7.165-7.088,14.487-10.514,21.573l-2.166,4.449a1.86,1.86,0,0,1-1.3,1.181c-2.441.59-4.686,1.141-6.812,1.692-.354.079-.748.2-1.1.276a22.518,22.518,0,0,0-3.82,1.181A136.688,136.688,0,0,0,30.2,377.8a63.356,63.356,0,0,0-18.114,15.432c-4.253,5.117-7.442,11.495-10.081,20.077C.236,419.06-.039,425.084-.354,430.91v.787A3.112,3.112,0,0,0,.827,434.61H7.6v.158a1.328,1.328,0,0,1,.118.315,57.967,57.967,0,0,0,2.323,14.211,50.7,50.7,0,0,0,7.915,16.3,46.1,46.1,0,0,0,14.727,12.952c6.458,3.7,13.585,4.448,20.476,5.117,6.261.63,12.837-.511,20.634-3.582,9.254-3.661,15.751-10.668,20.4-16.337a45.306,45.306,0,0,0,7.285-12.873,8.875,8.875,0,0,1,.394-.906,4.117,4.117,0,0,0,.157-.393c.315,0,.63-.079.945-.079.788-.079,1.536-.157,2.284-.157,1.851,0,3.741-.04,5.631-.079,3.308,0,6.734-.04,10.12-.2,3.662-.157,7.4-.433,10.987-.709,1.929-.157,3.9-.275,5.828-.433,1.3-.078,2.638-.157,3.977-.2,1.063-.04,2.165-.079,3.229-.158l5.237-.354c3.308-.236,6.733-.473,10.081-.591,8.584-.315,17.286-.551,25.713-.787l4.41-.118c1.93-.04,3.859-.118,5.789-.158,5.749-.2,11.656-.393,17.484-.354,6.221,0,12.876,0,19.531-.433.63-.039,1.26,0,1.89,0h.748l.079.157a1.33,1.33,0,0,1,.157.394,43.022,43.022,0,0,0,3.269,10.117c2.244,5,5.237,10.669,10.238,14.96,2.6,2.244,5.395,4.37,8.112,6.377l.669.512a38.459,38.459,0,0,0,16.7,6.929,54.52,54.52,0,0,0,9.923.826c2.875,0,5.553-.157,7.915-.393a40.082,40.082,0,0,0,11.577-2.953,46.224,46.224,0,0,0,14.767-9.527,32.89,32.89,0,0,0,7.048-8.7,90.839,90.839,0,0,0,7.128-16.927c.394-1.3.787-2.638,1.181-3.937a64.935,64.935,0,0,0,3.032-12.991,1.025,1.025,0,0,1,.158-.394c0-.039.039-.079.078-.157l4.529-.433v-.158s.079-.275.118-.433a4.858,4.858,0,0,0,.118-.669c0-.669-.039-1.378-.079-2.047-.039-1.181-.078-2.4-.078-3.583a41.566,41.566,0,0,0-.67-8.7c-.236-1.22-.433-2.48-.591-3.7-.118-.866-.236-1.732-.393-2.638-.118-.63-.2-1.22-.315-1.85-.315-2.047-.67-4.134-1.182-6.141a94.65,94.65,0,0,0-3.347-10.866l-.433-1.141a55.792,55.792,0,0,0-5.355-11.417,168.069,168.069,0,0,0-10.514-14.8A76.663,76.663,0,0,0,297.3,341.744a79.6,79.6,0,0,0-22.957-8.188c-.906-.2-1.812-.394-2.8-.67-.315-.078-.63-.157-.985-.236.2-.118.394-.2.552-.315.63-.354,1.181-.669,1.732-.984a7.063,7.063,0,0,0,3.229-5.629,6.938,6.938,0,0,0-2.559-5.9,12.323,12.323,0,0,0-6.734-3.071c-2.244-.2-4.489-.394-6.773-.551h-1.732c.078-.079.118-.118.157-.118,7.718-2.913,12.8-8.818,16.775-14.172,3.15-4.252,5-9.645,5.513-16.062a57.876,57.876,0,0,0-3.032-22.833,111.465,111.465,0,0,0-4.214-10.747,97.767,97.767,0,0,0-9.214-16.967l-.158-.2c-.669-.945-1.378-1.929-2.008-2.913a63.4,63.4,0,0,0-9.135-11.889,5.155,5.155,0,0,1-.473-.551c.984-2.756,1.93-5.511,2.914-8.228,2.284-6.456,4.607-13.109,6.97-19.6,1.221-3.347,2.52-6.732,3.78-9.96l2.008-5.2q.649-1.653,1.182-3.307l.275-.787c.355-1.023.709-2.047,1.063-3.11.749-2.165,1.5-4.37,2.363-6.535,1.063-2.677,2.166-5.432,3.268-8.07,1.024-2.519,2.127-5.118,3.111-7.716,1.1-2.795,2.166-5.629,3.229-8.385,1.221-3.267,2.52-6.653,3.82-9.96,2.048-5.2,4.213-10.432,6.3-15.55,1.5-3.661,2.993-7.283,4.45-10.944a1.933,1.933,0,0,1,1.536-1.417c1.575-.354,3.189-.748,4.764-1.22,7.4-2.165,14.57-5.826,22.564-11.456a20.245,20.245,0,0,0,3.386-2.834,15.705,15.705,0,0,1,5.867-3.858c.276-.118.512-.2.749-.315.315-.158.669-.276.984-.433,1.3-.512,2.6-1.063,3.9-1.575,2.954-1.22,6.025-2.48,9.136-3.464,5.08-1.575,10.317-2.756,15.357-3.9,3.82-.866,5.631-3.11,5.986-7.559a7.059,7.059,0,0,0-3.781-6.81m-181.294,98.1a1.416,1.416,0,0,1,1.89,1.889,25.584,25.584,0,0,1-1.142,2.992c-.157.394-.354.827-.512,1.22l-4.489-3.5A10.622,10.622,0,0,1,186.374,155.657Zm2.4,6.456v-.158c.2-.354.355-.708.512-1.063.315-.669.591-1.377.866-2.086.63-1.85.394-3.228-.748-4.291a4.01,4.01,0,0,0-2.717-1.063,4.816,4.816,0,0,0-2.126.512,21.279,21.279,0,0,0-2.4,1.417,8.99,8.99,0,0,1-1.024.63c-.236.157-.512.315-.788.512l-.315.2-1.26-.945c2.442-2.2,4.411-3.779,7.128-4.252a5.429,5.429,0,0,1,4.37,1.22,4.691,4.691,0,0,1,1.772,3.465,7.6,7.6,0,0,1-.748,2.8c-.472,1.1-.984,2.2-1.575,3.346-.2.394-.433.827-.63,1.26-.709-.473-.551-.906-.315-1.457m52.609,7.755c-8.979-1.85-18.232-3.779-27.25-6.3a5.394,5.394,0,0,1,.079-.788q.118-1,.236-1.889c.394-2.244.748-4.449,1.142-6.693.945-5.629,1.93-11.455,2.993-17.164,1.693-8.9,3.426-17.006,5.2-24.8a96.348,96.348,0,0,1,2.914-9.408c.236-.63.433-1.3.669-1.929a199.588,199.588,0,0,1,11.7-27.439,138.5,138.5,0,0,1,7.4-12.007l.985-1.457c1.929-2.913,3.977-5.748,5.985-8.543.748-1.063,1.536-2.126,2.284-3.189.236-.315.473-.59.827-.984a1.717,1.717,0,0,0,.236-.276V47.2a2.952,2.952,0,0,1-.079.905c-.433,2.2-.9,4.37-1.338,6.574-.67,3.189-1.3,6.377-1.93,9.566-.118.63-.157,1.26-.236,1.929a9.8,9.8,0,0,1-.079,1.024v.2h.158c3.307.905,6.615,1.575,9.844,2.165,2.245.433,4.528.905,6.773,1.378,3.78.866,7.521,1.653,11.459,2.52,1.614.354,3.229.709,4.883,1.063l-.237.59c-.236.59-.472,1.1-.708,1.653l-.119.276c-.59,1.3-1.26,2.677-1.89,3.976s-.669,1.3-2.047,1.181h-.552c-3.071-.275-6.221-.512-9.293-.59-6.576-.157-13.112,1.693-19.885,5.63-4.332,2.52-8.033,6.338-11.656,12.086a61.984,61.984,0,0,0-3.741,7.4c-.276.669-.591,1.3-.866,1.968a3.818,3.818,0,0,0-.2,2.48,1.341,1.341,0,0,0,1.063,1.063,1.58,1.58,0,0,0,1.536-.669,4.238,4.238,0,0,0,.472-.945.843.843,0,0,1,.118-.276,50.107,50.107,0,0,1,12.207-16.809,29.72,29.72,0,0,1,14.806-7.283c5.2-1.063,10.435-.63,15.555-.2h.236c.275.039.551.079.787.118.158,0,.355.039.512.039a1.726,1.726,0,0,0,1.89-1.063c.394-.748.827-1.456,1.221-2.165.315-.551.63-1.063.906-1.614.827-1.5,1.614-2.992,2.4-4.488,1.654-3.071,3.308-6.259,5.119-9.251,3.386-5.669,7.167-11.535,12.679-16.022a24.048,24.048,0,0,1,2.639-1.811l.63-.394c2.166-1.378,4.41-1.3,7.245.315.04,0,.118.118.158.2-3.032-.551-5.631.512-7.876,3.346a15.636,15.636,0,0,0-3.15,5.866,8.131,8.131,0,0,0,3.032,8.621c.2.158.433.276.63.433l.158.118a1102.809,1102.809,0,0,0-48.868,105.975c-6.537-1.575-13.231-2.992-19.649-4.33M308.09,61.019a11.732,11.732,0,0,1,5.395-8.267,5.955,5.955,0,0,1,2.559-.827h.276a1.453,1.453,0,0,1,1.181.512,1.243,1.243,0,0,1,0,1.378c-1.457,3.031-2.953,6.1-4.449,9.054q-.828,1.653-1.654,3.307c-2.757-1.063-3.82-2.716-3.387-5.118m35.716-38.146-.079.394c-.315,1.535-.669,3.071-1.024,4.606-.669,3.11-1.417,6.3-1.929,9.448a5.775,5.775,0,0,1-2.205,3.5,71.919,71.919,0,0,0-10.357,11.3l-.354.472-.079.079h-.079c.158-1.063.276-2.086.434-3.11.354-2.48.708-5.039,1.1-7.558.276-1.771.551-3.5.827-5.275.355-2.2.709-4.448,1.063-6.692a4.317,4.317,0,0,1,2.442-3.661c2.323-1.22,4.607-2.638,6.812-3.976.984-.59,1.93-1.22,2.914-1.771a5.464,5.464,0,0,1,.669-.315.3.3,0,0,0,.158-.079,9.492,9.492,0,0,1-.276,2.638m-1.378-5.354c-.236.2-.394.315-.551.433-1.182.709-2.324,1.417-3.505,2.126-2.087,1.26-4.253,2.559-6.34,3.9a4.293,4.293,0,0,1-3.583.59c-6.655-1.575-13.467-3.11-20.043-4.606-2.363-.512-4.725-1.063-7.049-1.614a1.785,1.785,0,0,1-.433-.118h-.118l-.118-.236h.079a6.355,6.355,0,0,0,.708-.394l.906-.59c3.15-2.165,6.379-4.37,9.529-6.614a2.691,2.691,0,0,1,2.6-.512c4.017,1.181,8.191,2.323,12.759,3.543,3.032.787,6.1,1.575,9.1,2.323,1.536.394,3.111.787,4.646,1.181.394.118.749.2,1.221.354a1.265,1.265,0,0,1,.355.118l-.119.118M310.1,9.015c-.236.2-.433.354-.63.551q-.885.768-1.772,1.417c-1.338.945-2.717,1.85-4.055,2.8-1.5,1.023-3.033,2.047-4.529,3.11a3.2,3.2,0,0,1-2.835.472c-5.67-1.26-11.42-2.48-17.011-3.661-2.481-.551-4.962-1.063-7.443-1.614a3.123,3.123,0,0,1-1.22-.512,2.361,2.361,0,0,0,.315-.157l3.465-1.85c3.347-1.772,6.812-3.622,10.238-5.433a3.212,3.212,0,0,1,2.008-.315c7.207,1.142,14.413,2.874,21.382,4.567l1.536.354a1.652,1.652,0,0,1,.394.2l.079.079M297.813,21.534c6.812,1.653,13.742,3.385,20.437,5.078,2.914.748,5.867,1.457,8.82,2.2v.2a2.533,2.533,0,0,1,0,.551c-1.378,8.07-2.717,16.18-4.134,24.25-.355,2.087-.749,4.212-1.182,6.3a2.731,2.731,0,0,1-.59,1.22,36.805,36.805,0,0,1-7.758,7.007h-.315c.473-.905.945-1.811,1.378-2.677,1.221-2.362,2.363-4.567,3.505-6.81a34.652,34.652,0,0,0,2.126-5.078c.788-2.441.2-4.094-2.047-5.59l-.079-.039h-.079c-4.371-3.11-8.308-2.913-12.719.59a46.3,46.3,0,0,0-8.938,10.078c-2.048,2.992-4.056,5.944-6.143,9.094-.906,1.338-1.772,2.677-2.717,4.055l-2.324-.433c-8.9-1.653-18.113-3.386-27.407-5.748L268.122,15.2c11.262,2.165,20.673,4.173,29.612,6.338m1.929,75.191a12.516,12.516,0,0,1,.67-1.614c3.229-6.692,7.009-14.526,10.789-22.282a3.005,3.005,0,0,1,1.142-1.181c6.419-2.952,10.711-7.991,14.058-12.519.551-.748,1.1-1.5,1.614-2.244,3.111-4.252,6.3-8.7,10.278-12.361a49.885,49.885,0,0,1,7.915-6.338c.472-.276.984-.512,1.5-.748.355-.158.67-.315,1.024-.512a4.288,4.288,0,0,1,2.126-.551,9.159,9.159,0,0,1,3.978,1.26c.708.354,1.063.945,1.378,2.165-2.087-1.5-4.253-.709-6.182-.039a8.412,8.412,0,0,0-5.12,4.763,5.467,5.467,0,0,0,2.914,7.243l.749.354s-.315.354-.473.551c-.433.512-.827.984-1.26,1.456a64.838,64.838,0,0,0-9.608,14.29c-1.93,3.858-4.253,7.6-6.458,11.1a14.639,14.639,0,0,1-3.387,3.661c-3.189,2.559-6.064,4.685-8.781,6.535a30.263,30.263,0,0,1-5.67,2.874c-3.072,1.181-6.182,2.323-9.214,3.425-1.024.354-2.009.709-3.033,1.063-.236.079-.472.118-.827.2a.527.527,0,0,0-.314.079c.078-.2.157-.433.236-.63m46.623-50.153c.394-2.4,3.662-5.2,6.182-5.236h.315a7.536,7.536,0,0,1,.866.118c1.024.236,1.654.63,1.891,1.22a2.428,2.428,0,0,1-.473,2.165,8.883,8.883,0,0,1-5.631,4.37,2.692,2.692,0,0,1-2.441-.512,2.24,2.24,0,0,1-.63-2.126m10.986,20.117a6.548,6.548,0,0,1,4.843-2.2,8.47,8.47,0,0,1,2.166.315,5.755,5.755,0,0,1,2.245,1.693,1.2,1.2,0,0,1,.354.945,1.31,1.31,0,0,1-.709.905,11.952,11.952,0,0,1-2.677,1.22c-1.5.433-2.993.787-4.529,1.142-.591.157-1.181.276-1.772.433-1.417-2.008-1.378-2.952.158-4.527m.945-3.661a7.384,7.384,0,0,0-3.662,3.9,7.207,7.207,0,0,0,0,4.645v.236L335.3,78.852a1.965,1.965,0,0,1,.118-.472l1.1-1.929c2.717-4.763,5.513-9.684,8.308-14.487a2.949,2.949,0,0,1,1.457-1.063,57.558,57.558,0,0,1,15.633-2.283h1.5a6.155,6.155,0,0,1,5.828,4.448,3.776,3.776,0,0,1-.315,2.6,7.626,7.626,0,0,1-.552-.59,17.137,17.137,0,0,0-1.929-1.85A6.841,6.841,0,0,0,362.392,62a8,8,0,0,0-3.938.905M213.23,169.986l.59-3.818,46.9,10.156-1.3,3.622c-.315-.079-.63-.118-.945-.2-.787-.157-1.575-.315-2.323-.472-5.906-1.536-12.246-2.913-19.964-4.291-4.686-.866-9.412-1.929-13.979-2.992l-6.143-1.417c-.591-.158-1.221-.276-1.89-.433l-.867-.2ZM186.413,201.6l.079-.079c.906-1.063,1.851-2.205,2.993-3.661a8.212,8.212,0,0,0,.669-1.1,1.052,1.052,0,0,0-.512-1.378.843.843,0,0,0-.433-.079h-.039a1.627,1.627,0,0,0-1.181.827c-.355.433-.67.9-1.024,1.338-.985,1.339-2.009,2.717-3.111,4.016a19.343,19.343,0,0,1-6.537,5.2,5.11,5.11,0,0,1-5.04-.2,12.042,12.042,0,0,1-3.19-2.519c-1.063-1.221-1.969-2.52-2.992-3.9-.394-.551-.788-1.062-1.182-1.614,3.269-2.716,7.128-6.495,8.191-12.164.079-.472.157-.984.2-1.5a.86.86,0,0,0-.985-.984,1.327,1.327,0,0,0-.59.236,1.909,1.909,0,0,0-.63,1.26,12.165,12.165,0,0,1-3.072,6.85,35.212,35.212,0,0,1-3.071,2.8c-.433.354-.867.748-1.3,1.1a2.882,2.882,0,0,1-.275-.472,9.162,9.162,0,0,0-.867-1.181,1.686,1.686,0,0,0-1.3-.709,1.817,1.817,0,0,0-1.378.827c-.512.59-.985,1.22-1.5,1.811l-.472.551a140.752,140.752,0,0,1-6.694-15.275c3.268-3.5,4.331-7.164,3.228-11.259l1.024.237c.433.078.827.2,1.26.315a16.865,16.865,0,0,0,2.8.59c4.1.473,7.679-1.063,10.908-4.645a17.292,17.292,0,0,0,4.292-8.031.988.988,0,0,1,.2-.433.536.536,0,0,1,.079-.118c14.569,10.157,28.351,21.337,39.928,30.9a184.67,184.67,0,0,0-21.657,22.951c-.2-.236-.394-.433-.591-.669-.512-.552-.945-1.063-1.378-1.536-1.457-1.693-2.875-3.425-4.292-5.157l-.552-.669a1.783,1.783,0,0,1-.039-2.559m-14.1-44.288a14,14,0,0,1-6.064,9.881,4.964,4.964,0,0,1-1.3.63c-4.528,1.457-8.19,1.3-11.537-.551a1.736,1.736,0,0,0-.276-.157,1.249,1.249,0,0,0-1.693-.04,1.7,1.7,0,0,0-.236,2.165c1.417,3.425.787,6.772-2.087,10.511a5.5,5.5,0,0,1-2.324,1.575c-3.071,1.142-6.182,1.024-10.159-.472l26.343-31.612,1.812,1.378c1.614,1.181,3.15,2.362,4.725,3.543.315.236.63.512.945.748a16.052,16.052,0,0,0,1.3.984,1.265,1.265,0,0,1,.512,1.417m52.332,90.387-3.622-2.6c2.48-2.007,26.658-16.888,31.423-19.329l2.874,4.567L224.61,247.618Zm44.851,16.731v-.237c-.157-3.543-.315-7.243-.748-10.944.079.158.158.315.236.473a111.989,111.989,0,0,1,6.065,23.305,30.136,30.136,0,0,1-.945,12.086,33.568,33.568,0,0,1-10,16.219c-3.308,3.031-7.206,4.724-12.05,6.259-6.891,2.2-14.1,2.52-20.87,2.677a1.363,1.363,0,0,1-.354-.039.349.349,0,0,1-.2-.04l-.67-4.291.788-.236c.669-.2,1.26-.354,1.89-.551.827-.236,1.693-.472,2.52-.709,1.969-.551,4.017-1.1,5.986-1.85a35.7,35.7,0,0,0,5.591-2.874l.276-.157a47.086,47.086,0,0,0,16.932-17.125,39.491,39.491,0,0,0,5.552-22.006m15.633,171.679c-2.756.2-4.961-1.811-5.591-5l10.553-.473C289.858,433.744,288.008,435.752,285.054,435.988Zm-40.362-3.267v-.433l31.739-1.26c1.3,5.511,4.449,8.07,9.332,7.6,4.292-.394,6.773-3.15,7.442-8.189l34.18-1.023c0,.2-.039.433-.039.59a6.646,6.646,0,0,1-.236,1.575c-.709,2.52-1.5,5.078-2.166,7.244l-.709,2.125c-.394,1.1-.788,2.284-1.1,3.465a43.586,43.586,0,0,1-4.567,10.708A45.923,45.923,0,0,1,311,464.214a42.06,42.06,0,0,1-12.64,8.07,39.95,39.95,0,0,1-28.116.119,39.493,39.493,0,0,1-14.176-10.078c-2.717-3.032-5.552-6.22-7.048-10.078a77.5,77.5,0,0,1-3.111-10.275,50.334,50.334,0,0,1-.945-5.866c-.079-.708-.158-1.417-.276-2.126a6.371,6.371,0,0,1,0-1.22m56.153-5.551c-4.8.2-9.766.355-14.649.473-3.9.079-7.836.157-11.656.2-4.725.078-9.647.118-14.451.275-2.953.079-5.907.276-8.821.512-1.693.118-3.465.236-5.2.354-5.238.276-10.554.551-15.673.827l-2.835.157a.572.572,0,0,1-.276-.078h-.078a5.162,5.162,0,0,1,.118-.827c.079-.709.2-1.417.315-2.126.157-.787.315-1.614.433-2.4.433-2.362.906-4.842,1.5-7.2a51.8,51.8,0,0,1,2.245-6.575,65.328,65.328,0,0,1,8.86-15.707c9.49-12.2,20.673-19.447,34.18-22.124a36.976,36.976,0,0,1,6.261-.473h.275a66.914,66.914,0,0,1,14.806,1.339,42.8,42.8,0,0,1,20.083,10.157,56.252,56.252,0,0,1,11.183,14.565,1,1,0,0,0,.157.276,4.006,4.006,0,0,0,.2.394c2.757,4.33,4.214,9.29,5.592,14.093l.591,2.008c.669,2.244,1.26,4.566,1.811,6.81.236.9.473,1.772.669,2.677a2.432,2.432,0,0,1,.079.63v.315a7.819,7.819,0,0,0-.945.118c-.827.118-1.575.2-2.363.236-8.387.315-16.814.591-25.2.906l-1.654.078c-1.851.04-3.741.118-5.592.2m-282.14,4.606a43.391,43.391,0,0,1,1.221-4.96c.236-.788.433-1.575.669-2.362,1.142-4.449,3.583-8.307,5.985-11.85a29.584,29.584,0,0,1,5.316-5.511,103.935,103.935,0,0,1,8.86-6.771,26.923,26.923,0,0,1,10.2-4.055c2.048-.394,4.371-.827,6.694-1.063.315,0,.63-.039.945-.039a19.949,19.949,0,0,1,2.678.2l.63.078a40.519,40.519,0,0,1,11.656,2.756,9.872,9.872,0,0,1,2.4,1.339l.866.708a69.418,69.418,0,0,1,9.805,8.858,27.281,27.281,0,0,1,5.788,10.2l.118.433c1.221,4.133,2.481,8.424,2.4,10.668-.158,8.779-1.733,15.471-5.277,22.361a32.732,32.732,0,0,1-9.608,11.377c-.866.63-1.693,1.3-2.52,1.929s-1.615,1.259-2.441,1.85a25.511,25.511,0,0,1-13.113,4.96c-5.946.591-12.207-.079-19.728-2.165a30.38,30.38,0,0,1-9.333-4.33,15.685,15.685,0,0,1-1.929-1.733c-.276-.275-.551-.59-.827-.905a15.525,15.525,0,0,0-1.1-1.181c-4.489-4.015-7.4-9.291-9.451-17.2a32.426,32.426,0,0,1-.984-13.582M64.7,385.48h-.315a14.1,14.1,0,0,0-3.15-.393H57.767a62.1,62.1,0,0,0-9.372.472,33.471,33.471,0,0,0-14.57,5.748c-.787.551-1.614,1.1-2.4,1.653-1.221.827-2.481,1.654-3.662,2.6a82.637,82.637,0,0,0-6.379,5.945,47.454,47.454,0,0,0-11.223,18.738,53.581,53.581,0,0,0-2.8,12.007l-5.237.276a.662.662,0,0,0-.079-.2,1.608,1.608,0,0,1-.079-.275l.079-1.1C2.323,426.3,2.6,421.5,4.1,416.974c.827-2.52,1.654-5.039,2.441-7.558l.158-.552c1.811-5.629,5.08-10.825,10.2-16.337a68.693,68.693,0,0,1,19.334-14.251,72.9,72.9,0,0,1,16.735-5.747,38.086,38.086,0,0,1,11.026-.984l2.56.118c1.772.078,3.583.157,5.355.354,6.261.669,12.6,2.874,19.925,6.968,6.734,3.74,11.853,9.133,16.027,13.857a33.264,33.264,0,0,1,5.041,8.346,63.823,63.823,0,0,1,5.473,19.88c.276,2.441.354,4.96.394,7.362,0,1.023.079,2.007.118,2.992a3.524,3.524,0,0,1-.079.866,1.347,1.347,0,0,1-.039.393,70.531,70.531,0,0,1-8.112.315c-1.811,0-3.662,0-5.513.079v-.118s-.157-.276-.118-.394c.276-6.889-2.087-13.266-4.292-18.738a46.015,46.015,0,0,0-6.458-11.141,43.119,43.119,0,0,0-14.1-11.653c-5.907-3.11-10.671-4.842-15.475-5.629m37.882-95.386c-.788-2.008-.355-3.661,1.181-4.449a2.874,2.874,0,0,1,1.418-.393,2.492,2.492,0,0,1,1.653.669c2.048,1.575,2.442,3.818,2.6,6.023a.779.779,0,0,1-.039.276c-.039.275-.118.629-.2.944-.315,1.063-.748,1.654-1.26,1.811s-1.221-.157-2.048-.866a10.442,10.442,0,0,1-3.268-3.976m33.943-9.96a10.252,10.252,0,0,1-11.7,5.945,24.589,24.589,0,0,1-3.78-1.024,9.7,9.7,0,0,1-6.537-9.723,13.28,13.28,0,0,1,4.017-9.134c2.874-2.991,6.694-2.716,10.041-2.007a11.094,11.094,0,0,1,8.939,10.55,13.442,13.442,0,0,1-.985,5.433m3.781,102.078a8.385,8.385,0,0,1,.315.9v.158l16.538.9a1.089,1.089,0,0,0,.04.315,8.42,8.42,0,0,1,.078.945c-.157,4.449-.354,8.936-.551,13.385l-.157,3.858v.551a2.391,2.391,0,0,1-2.206,2.6c-4.1.787-8.9,1.693-13.585,2.52-5.355.944-10.789,1.85-16.066,2.755l-3.5.591c-.315.039-.63.079-.985.118h-.315c-.315-.906-.63-1.85-.945-2.756-.709-2.165-1.5-4.409-2.363-6.535a86.329,86.329,0,0,0-4.371-8.818,35.229,35.229,0,0,0-6.1-8.031c-1.615-1.614-3.229-3.11-4.922-4.763-.709-.669-1.418-1.339-2.166-2.047l.709-1.929c.551-1.535,1.142-3.11,1.693-4.685.866-2.441,1.733-4.921,2.6-7.361,2.559-7.244,5.2-14.724,7.757-22.085,1.772-5.2,3.466-10.511,5.08-15.668l.276-.906c1.22-3.858,2.4-7.755,3.622-11.613,1.339-4.291,2.717-8.739,4.1-13.109.512-1.614,1.063-3.268,1.654-4.842.708-2.008,1.417-4.055,2.008-6.1.551-1.85,1.89-2.4,3.7-2.913a1.408,1.408,0,0,0,.079.393c.079.433.118.788.158,1.142.078,1.1.118,2.244.2,3.346.079,1.614.2,3.307.315,4.961.119,1.535.237,3.07.355,4.645.157,1.929.354,3.976.472,5.944.119,2.165.237,4.409.355,6.574.118,2.52.236,5.079.433,7.638.354,5.2.827,10.432,1.221,15.117l.078,1.181c.749,8.621,1.536,17.557,2.363,26.375.276,2.8.591,5.59.945,8.307.158,1.378.355,2.716.512,4.094a1.5,1.5,0,0,0,.039.394,3.23,3.23,0,0,1,.04,1.063,5.541,5.541,0,0,0,.512,3.464m47.213-43.461c.552,3.661,1.1,7.519,1.694,12.164.157,1.142.275,2.283.393,3.386.158,1.338.276,2.755.473,4.094.591,4.055,1.26,8.188,1.89,12.164l.354,2.244c.2,1.22.394,2.441.631,3.661q.235,1.418.472,2.835v.748h-4.646c-.276-1.457-.512-2.914-.788-4.331-.591-3.267-1.221-6.692-1.851-10-.63-3.346-1.3-6.732-1.929-10.078-1.063-5.472-2.166-11.1-3.19-16.652-.433-2.48-.827-5.039-1.181-7.519-.355-2.52-.709-5.078-1.182-7.6-.826-4.448-1.732-8.936-2.638-13.306-.512-2.441-.984-4.842-1.457-7.283-.275-1.417-.512-2.834-.787-4.33-.118-.591-.2-1.221-.315-1.85h.2c.275.118.472.157.63.236.63.315,1.22.63,1.85.945.945.472,1.89.984,2.875,1.456a2.185,2.185,0,0,1,1.26,1.693l.315,1.614c.788,3.9,1.575,7.952,2.441,11.928.276,1.339.63,2.716.945,4.016.434,1.81.906,3.7,1.261,5.59.787,4.291,1.457,8.66,2.087,12.912Zm-8.7-1.614c.669,3.7,1.418,7.44,2.126,11.1.434,2.126.827,4.252,1.26,6.378q2.3,11.868,4.529,23.777a10.884,10.884,0,0,1,.157,1.26,1.884,1.884,0,0,0,.04.472c-12.8-.2-24.808-.708-36.779-1.574v-.591c-.079-.512-.079-.945-.118-1.417-.394-5.039-.827-10.039-1.26-15.078-.118-1.3-.236-2.637-.315-3.936-.2-2.284-.394-4.527-.551-6.811l-.079-1.063c-.473-6.141-.945-12.479-1.378-18.738-.119-1.811-.2-3.661-.276-5.472-.079-2.047-.158-4.173-.315-6.26-.158-2.2-.433-4.409-.709-6.535-.118-1.141-.275-2.283-.394-3.385-.157-1.339-.275-2.677-.433-4.016-.394-3.385-.787-6.849-1.063-10.274l-.2-2.362c-.472-6.338-.984-12.873-2.048-19.211V273.4c.512.433.985.866,1.457,1.3,1.182,1.063,2.324,2.087,3.5,3.031a172.33,172.33,0,0,0,23.863,17.086,3.178,3.178,0,0,1,1.693,2.48c.512,2.637,1.024,5.275,1.575,7.912.867,4.449,1.812,9.055,2.639,13.621.59,3.189,1.1,6.417,1.575,9.566.472,2.914.945,5.945,1.457,8.9m52.017,42.91a6.708,6.708,0,0,1-.866.2h-.433c-2.166.079-4.371.158-6.576.158-7.521,0-15-.079-22.524-.158h-4.213c-.237,0-.473-.079-.709-.079h-.118c-.276-1.574-.512-3.11-.788-4.645-.591-3.464-1.181-7.047-1.693-10.55-.709-5.039-1.418-10.2-2.087-15.2-.552-4.133-1.1-8.267-1.693-12.361a233.129,233.129,0,0,0-4.293-23.66c-.63-2.44-1.1-4.96-1.575-7.4-.157-.906-.354-1.851-.551-2.756a13.415,13.415,0,0,1-.158-1.378,1.931,1.931,0,0,0-.039-.472c.709.315,1.418.59,2.087.9a95.4,95.4,0,0,0,16.027,5.787,100.426,100.426,0,0,0,19.137,2.441l11.1,69.207h-.079M204.33,414.3v-.157c-.039-.63-.078-1.457-.945-1.575a4,4,0,0,0-2.284.354,4.806,4.806,0,0,0-1.26,1.26,4.222,4.222,0,0,1-.354.433c-.945,1.181-1.93,2.362-2.875,3.543-2.205,2.756-4.489,5.551-6.773,8.346a2.365,2.365,0,0,1-1.339.63,5.139,5.139,0,0,1-1.338.118h-.276l-11.144.118c-8.309.079-16.932.157-25.4.394-4.371.118-8.821.393-13.074.708-2.638.158-5.394.354-8.072.473-1.693.078-3.465.078-5.159.039h-2.165l-1.182-12.952,1.772-.472c1.418-.394,2.875-.748,4.371-1.024,7.009-1.3,14.176-2.559,21.107-3.818l7.757-1.378a3.6,3.6,0,0,0,.433-.079c.276-.039.551-.118.866-.157,1.694-.2,2.4-.945,2.481-2.559.276-5.551.512-11.495.827-18.739v-3.149c7.876.079,15.83.315,23.509.512,15.121.393,30.753.826,46.189.354,0,.59.079,1.141.119,1.693.078,1.3.157,2.519.2,3.739.158,3.977.276,7.087.315,10a5.2,5.2,0,0,1-.393,1.535c-.433,1.1-.906,2.165-1.378,3.267-.867,2.048-1.812,4.213-2.56,6.378a42.206,42.206,0,0,0-2.284,11.692,4.958,4.958,0,0,1-.118,1.1,4.428,4.428,0,0,1-.118.512.565.565,0,0,1-.079.236c-4.883.433-9.844.472-14.688.551-1.3,0-2.6.04-3.938.079l-.511-8.425c-.079-1.141-.158-2.322-.237-3.464m-103.8-121.407c.551.9,1.1,1.732,1.693,2.519a17.813,17.813,0,0,0,1.575,1.85c.394.433.748.866,1.1,1.3a5.273,5.273,0,0,0,3.7,1.85,8.048,8.048,0,0,0,5.868-1.85c3.071-2.6,2.914-5.945,2.362-8.858-.157-.9-.393-1.811-.63-2.8-.079-.315-.157-.669-.236-.984l1.063.708a14.36,14.36,0,0,0,3.072,1.772,16.869,16.869,0,0,0,3.5.827c.473.078.985.157,1.5.236-6.419,21.258-13.822,42.673-21.028,63.38-2.756,7.992-5.631,16.259-8.427,24.408-.669-.354-1.339-.709-1.969-1.063-1.615-.866-3.111-1.693-4.607-2.559a30.007,30.007,0,0,0-6.655-2.756,92.743,92.743,0,0,0-11.183-2.362l-2.008-.354a27.3,27.3,0,0,0-4.017-.315c-.433,0-.866,0-1.3-.039h-2.8c12.719-26.652,26.147-52.24,38.787-75.939.236.354.433.669.63.984M104.9,436.7c.827,0,1.693-.079,2.52-.079,1.969-.079,3.977-.157,5.946-.2,3.15-.079,6.261-.118,9.411-.2,4.174-.078,8.466-.157,12.719-.275,4.686-.118,9.412-.276,14.1-.394,5-.157,10.16-.315,15.24-.433,3.15-.079,6.339-.118,9.45-.118,1.969,0,3.938,0,5.907-.079,2.087,0,4.253-.118,6.3-.2h.2a1.922,1.922,0,0,0,1.772-.748c1.339-1.81,2.757-3.621,4.135-5.353.63-.788,1.26-1.614,1.89-2.4,1.024-1.338,2.048-2.637,3.071-3.976,1.142-1.456,2.245-2.913,3.387-4.409a5.545,5.545,0,0,1,.512-.551l.157-.158c0,.473.079.906.118,1.339.079,1.22.158,2.283.2,3.346.079,1.457.118,2.874.158,4.33.039,1.536.118,3.032.2,4.567a4.841,4.841,0,0,0,.315,1.732c.59,1.772,1.22,2.087,2.992,2.126a147.231,147.231,0,0,0,16.7-.433c2.8-.2,5.553-.472,8.467-.748,1.22-.118,2.441-.236,3.7-.354l.788,8.188h-.158c-.236,0-.394.079-.591.079-3.307.078-6.576.118-9.883.2-6.025.118-12.207.236-18.35.393l-6.5.158c-10.159.236-20.673.472-31.029.866-5.828.2-11.774.551-17.484.9-3.307.2-6.615.394-9.923.551-9.884.512-18.783.985-27.8,1.339-2.324.079-4.608.079-7.01.039h-3.032l1.457-9.015Zm215.75-55.035A45.313,45.313,0,0,0,310.3,374.97h-.078c-2.56-1.26-5.2-2.481-7.837-3.622a38.981,38.981,0,0,0-11.222-2.795,75.531,75.531,0,0,0-9.333-.709,38.792,38.792,0,0,0-4.292.236c-2.677.315-5.434.748-8.23,1.3a39.538,39.538,0,0,0-6.261,1.614,55.476,55.476,0,0,0-11.537,6.5c-1.536,1.063-3.111,2.244-4.844,3.622a60.674,60.674,0,0,0-11.892,13.463,5.744,5.744,0,0,1-.63.748,55.894,55.894,0,0,1-.236-9.723c.472,0,.945-.079,1.378-.119,1.181-.078,2.323-.157,3.465-.2,1.615-.079,2.442-.118,2.875-.63.394-.473.275-1.3,0-2.835-.433-2.637-.945-5.354-1.418-7.952-.394-2.2-.827-4.488-1.22-6.771-.512-2.992-.985-6.062-1.457-9.054q-.651-4.075-1.3-8.149c-.433-2.48-.866-4.96-1.339-7.4-.275-1.5-.551-2.992-.827-4.527-.118-.63-.2-1.26-.275-1.89a4.97,4.97,0,0,0-.118-.748c.315-.079.63-.118.945-.2a10.725,10.725,0,0,1,2.126-.315c3.386,0,6.812.158,10.159.276h1.182c1.732.079,3.5.157,5.276.315,8.624.787,18.744,2.008,28.628,4.881a117.755,117.755,0,0,1,12.01,4.488,22.978,22.978,0,0,1,4.686,2.992h.039c3.859,2.992,7.8,6.063,12.05,9.487a43.37,43.37,0,0,1,6.694,7.283c.591.748,1.221,1.536,1.811,2.244a104.885,104.885,0,0,1,10.042,15.275,47.569,47.569,0,0,1,2.874,6.692l.158.394a79.771,79.771,0,0,1,4.449,15.353c.04.393.079.826.119,1.22v.158c-.237-.473-.434-.985-.67-1.457-.63-1.338-1.26-2.716-1.929-4.055-3.111-6.259-7.128-13.385-13.625-18.817m-49.655-53.46a16.271,16.271,0,0,1-7.246,3.228,24.838,24.838,0,0,1-7.442.078q-1.713-.177-3.426-.236c-4.331-.118-8.7-.236-13.034-.275h-6.773l-1.732-11.5h.2a6.433,6.433,0,0,1,.787-.118c1.457,0,2.914-.039,4.41-.078,4.45-.079,9.057-.158,13.586-.2,4.056,0,7.127.118,10,.393,2.756.276,5.591.788,8.308,1.3l.827.157a4.214,4.214,0,0,1,2.048,1.024,3.838,3.838,0,0,1,1.3,2.873,4.473,4.473,0,0,1-1.772,3.386m-14.058-45.7a58.551,58.551,0,0,1-7.6,10.039,35.632,35.632,0,0,1-9.727,6.692A40.388,40.388,0,0,1,217.8,303.2a84.188,84.188,0,0,1-16.184-2.638c-5.473-1.417-10.71-3.031-15.554-4.685-5.04-1.732-9.687-4.448-14.215-7.046-1.024-.591-2.048-1.181-3.111-1.772a193.549,193.549,0,0,1-16.3-10.629c-2.717-1.929-5.434-3.936-8.073-5.9-1.614-1.22-3.229-2.4-4.883-3.622a12.5,12.5,0,0,1-1.142-.866c-2.244-1.653-4.528-3.385-7.324-4.212a33.028,33.028,0,0,0-5.985-1.1h-.67a11.023,11.023,0,0,0-5.552,1.889,15.617,15.617,0,0,0-6.615,7.953c-1.733,4.251-.867,8.345.354,12.125a44.049,44.049,0,0,1,1.851,8.227c.551,5-3.82,6.417-5.749,6.771-.512.079-.709.04-1.378-.393a3.944,3.944,0,0,0,3.937-2.717,12.255,12.255,0,0,0,.512-4.527,9.316,9.316,0,0,0-1.024-3.11l-.078-.2a5.413,5.413,0,0,0-4.726-3.385,6.044,6.044,0,0,0-5.631,2.952c-.118.2-.236.433-.393.709l-.118.236-.787-1.5c-.67-1.3-1.339-2.48-1.969-3.661a30.035,30.035,0,0,1-3.662-14.054,20.538,20.538,0,0,1,5.395-14.526,25.292,25.292,0,0,1,13.821-8.11,57.309,57.309,0,0,1,16.3-1.3,51.386,51.386,0,0,1,5.513.827c.906.157,1.772.315,2.678.472h.276a3.631,3.631,0,0,0,1.457.158,1.475,1.475,0,0,0,1.1-.866,1.57,1.57,0,0,0-.512-1.339,3.537,3.537,0,0,0-1.614-.748c-1.26-.157-2.56-.394-3.82-.59a48.869,48.869,0,0,0-10.474-.945c-5,.236-10.75.669-16.106,2.559a23.332,23.332,0,0,0-11.774,8.7c-.866,1.259-1.851,2.44-2.8,3.582-.788.945-1.575,1.929-2.323,2.953-2.205,2.991-4.1,5.747-5.828,8.424a36.067,36.067,0,0,1-6.3,6.929c-2.914,2.6-7.4,1.732-9.411.118a1.9,1.9,0,0,1-.906-1.457c1.851,1.221,3.662,1.063,5.749-.433a13.372,13.372,0,0,0,5.277-7.361,10.55,10.55,0,0,0,.315-3.819c-.315-2.913-2.166-4.37-5.2-4.134-.276,0-.551.079-.906.119h-.2v-.119a5.825,5.825,0,0,1,.276-.669c2.481-5.551,5.67-11.928,10.592-17.321a34.283,34.283,0,0,1,18.468-10.905,74.748,74.748,0,0,1,20.634-1.535c6.3.433,11.025,1.378,15.239,3.11a7.429,7.429,0,0,0,1.339.315,4.012,4.012,0,0,1,.669.118h.236v-.2a2.343,2.343,0,0,0-1.89-2.795c-2.363-.709-5.119-1.457-7.875-2.047a67.628,67.628,0,0,0-21.186-.787,51.837,51.837,0,0,0-16.577,4.606,26.542,26.542,0,0,1-3.347,1.259c-.827.276-1.693.591-2.481.906-3.229,1.3-7.009,2.873-10.632,4.448a23.367,23.367,0,0,1-13.585,1.575c-3.15-.512-6.3-4.055-6.261-7.007a2.581,2.581,0,0,1,.67-2.126,2.719,2.719,0,0,0,.118.315,9.173,9.173,0,0,1,.354,1.141c.709,3.425,2.8,5,6.655,5a9.031,9.031,0,0,0,6.812-3.268,5.552,5.552,0,0,0,.394-6.771,9.023,9.023,0,0,0-3.78-3.7c.551-.315,1.063-.591,1.575-.866,1.339-.709,2.6-1.417,3.9-2.008a79.222,79.222,0,0,1,20.87-6.3,114.6,114.6,0,0,1,16.5-1.811,111.089,111.089,0,0,1,11.34.394c6.143.473,12.129,2.283,17.917,4.016.945.275,1.851.59,2.8.826a187.9,187.9,0,0,1,22.8,8.582c1.535.709,3.111,1.339,4.646,2.008,2.363.984,4.8,2.008,7.128,3.149l.433.237c7.206,3.5,14.648,7.164,21.815,11.1,5.277,2.874,10.514,6.023,15.554,9.054,2.087,1.26,4.174,2.52,6.3,3.74a11.647,11.647,0,0,1,1.141.788c.276.2.591.393.867.59a2.039,2.039,0,0,0,.472.118h.355l3.189-3.818-1.024-1.654L255.679,232.5l.078.079a2.54,2.54,0,0,1,.355.433,45.118,45.118,0,0,1,5.67,15.825,86.339,86.339,0,0,1,1.142,13.149,37.153,37.153,0,0,1-5.985,20.273M76.865,260.333a1.9,1.9,0,0,1,.236,1.732,22.407,22.407,0,0,1-2.323,5.079,7.919,7.919,0,0,1-4.135,3.5,1.853,1.853,0,0,1-2.638-1.063,1.529,1.529,0,0,1-.039-1.1c.2-.512.394-1.023.591-1.575a34.894,34.894,0,0,1,2.126-4.8,5.806,5.806,0,0,1,4.056-2.638,2.639,2.639,0,0,1,2.087.866M68.714,230.1a7.68,7.68,0,0,1-5.67,1.693c-2.244-.2-3.308-1.417-3.268-3.74,0-2.716.591-3.306,4.292-4.409a5.519,5.519,0,0,1,1.5-.2,6.548,6.548,0,0,1,1.221.079c2.048.236,2.717,1.26,3.347,3.268.394,1.181-.079,2.244-1.457,3.306m179.167-10.55c.237.315.434.591.67.866a14.16,14.16,0,0,1,2.323,3.779c-.63.355-1.26.709-1.851,1.063-1.457.827-2.913,1.654-4.37,2.52-4.529,2.755-9.057,5.55-13.586,8.306-2.087,1.26-4.174,2.559-6.261,3.819l-1.772,1.063c-1.142.669-2.284,1.378-3.426,2.086a1.569,1.569,0,0,1-2.126-.039c-.315-.276-.63-.512-1.024-.827a4.061,4.061,0,0,0-.433-.315L247.8,219.51Zm-6.261-12.007c-.315-.315-.63-.669-.945-1.023v-.079l9.018,1.732-1.26,4.212a5.019,5.019,0,0,1-4.529-2.165A29.135,29.135,0,0,0,241.581,207.542Zm-32.053,23.581c1.024-.945,2.048-1.85,3.111-2.677,2.244-1.732,4.568-3.5,6.812-5.2s4.607-3.5,6.891-5.276c2.521-1.929,5-3.976,7.443-5.944,1.181-.945,2.323-1.89,3.5-2.795a3.443,3.443,0,0,1,.394-.276l.158-.078,3.7,3.5c-1.536,1.181-3.111,2.362-4.646,3.5-3.7,2.795-7.207,5.433-10.711,8.188-3.544,2.795-6.931,5.59-10.514,8.543-1.5,1.22-2.993,2.48-4.528,3.7l-2.914-3.976c.472-.393.9-.787,1.339-1.22m4.449,5.472.079-.079c1.457-1.181,2.914-2.4,4.371-3.622,2.205-1.81,4.449-3.7,6.733-5.511,2.993-2.362,6.1-4.724,9.1-7.007,1.457-1.1,2.914-2.244,4.371-3.346.984-.748,1.968-1.5,2.953-2.284l1.26-.984a2.232,2.232,0,0,0,.276.236c.275.276.551.512.787.788.67.787,1.26,1.574,1.93,2.4l.669.827-32.408,22.754a1.567,1.567,0,0,1-.2-.236c-.157-.2-.275-.355-.393-.512a2.324,2.324,0,0,1,.433-3.464m35.912-30.234c-.315-.04-.591-.079-.866-.118-3.269-.63-6.537-1.3-9.805-1.969h-.079a3.193,3.193,0,0,1-1.181-.433c-1.418-1.3-2.757-2.6-4.214-4.015-.354-.354-.708-.669-1.063-1.024l18.98,2.992-1.378,4.646h-.315M212.56,220.573c1.969-1.614,3.977-3.307,5.907-5.039,3.071-2.795,6.1-5.472,9.332-8.307,1.339-1.181,2.717-2.4,4.1-3.621l4.331,3.857c-5.591,4.8-11.5,9.33-17.169,13.7-3.977,3.071-8.111,6.22-12.088,9.448l-2.127-3.228c2.481-2.4,5.159-4.645,7.718-6.771m43.394-32.438-1.969,6.062c-.393-.079-.748-.2-1.1-.275-.906-.237-1.733-.433-2.56-.709a145.768,145.768,0,0,0-18.9-4.37c-.906-.157-1.811-.354-2.717-.511-.945-.2-1.89-.355-2.835-.552-2.284-.433-4.647-.866-6.97-1.377a7.633,7.633,0,0,1-2.6-1.221c-.63-.433-1.221-.945-1.811-1.417-.591-.512-1.221-1.024-1.89-1.5-1.261-.866-1.5-1.811-.867-3.307,17.13,3.15,31.187,6.063,44.221,9.212m-39.81,2.283,3.937,3.307c-7.088,5.708-13.231,12.44-19.177,18.9-1.3,1.417-2.638,2.874-3.977,4.291l-2.52-2.755c1.89-3.583,17.208-20.392,21.7-23.778m-16.7,26.927c.276-.276.591-.551.945-.945,5.119-5.354,10.4-10.747,15.554-15.9l2.835-2.874a22.9,22.9,0,0,1,2.048-1.771c.315-.237.63-.512.945-.788l3.7,2.992-24.926,23.187h-.079l-.551-.59Q198.069,218.683,199.408,217.384Zm51.545-17.636c-2.323-.355-4.725-.748-7.009-1.142-1.142-.2-2.323-.394-3.465-.551l-1.457-.236c-2.441-.394-5-.827-7.521-1.181a5.546,5.546,0,0,1-3.072-1.378c-1.772-1.575-3.622-3.15-5.434-4.685-.59-.512-1.181-.984-1.772-1.5,4.529.2,27.407,5.157,32.054,7.047-.079.236-.119.472-.2.708-.158.67-.355,1.26-.512,1.89a1.364,1.364,0,0,1-1.615,1.063m-23.705-.118,3.15,2.755-26.816,23.384-1.693-2.4c1.654-2.244,22.406-21.612,25.4-23.738m-15.475-22.951.748-4.409L258.4,181.8l-1.654,4.449-44.891-9.527Z" fill="#1d1d1b"/><path d="M252.686,271.868a1.713,1.713,0,0,0-1.3-.433,1.921,1.921,0,0,0-1.181.984c-2.008,3.07-4.134,6.377-6.615,10.353-1.182,1.929-1.182,2.047.709,3.858l.157.158.158-.2a2.592,2.592,0,0,0,.354-.433,4.744,4.744,0,0,0,.591-.709c.945-1.417,1.85-2.874,2.756-4.291,1.536-2.4,3.15-4.842,4.725-7.283a1.316,1.316,0,0,0-.393-2.047" fill="#1d1d1b"/><path d="M262.53,147.114c-.2.276-.433.551-.63.787a9.244,9.244,0,0,0-1.142,1.614c-1.811,3.229-3.622,6.535-5.552,10.118a1.961,1.961,0,0,0-.354,1.614c.2.512.866.826,1.811,1.141h.2l7.639-14.093-1.851-1.338Z" fill="#1d1d1b"/><path d="M56.822,442.287h.827a5.423,5.423,0,0,0,3.82-1.5,14.546,14.546,0,0,0,2.914-3.779,7.4,7.4,0,0,0-2.363-9.055,8.609,8.609,0,0,0-11.616,2.52c-1.024,1.575-1.969,3.425-1.457,5.314.866,2.992,2.52,6.457,7.875,6.457m.236-11.889a5.013,5.013,0,0,1,2.756.984,4.222,4.222,0,0,1,1.969,4.448c-.669,2.126-2.284,3.15-4.922,3.15-2.244,0-3.308-.669-4.016-2.559a1.917,1.917,0,0,1,0-1.614,9.616,9.616,0,0,0,.551-1.1c.276-.591.591-1.181.906-1.733a3.178,3.178,0,0,1,2.087-1.535,3.086,3.086,0,0,1,.63-.079" fill="#1d1d1b"/><path d="M167.158,388.709c-1.181.039-1.93,1.063-1.89,2.558a2.3,2.3,0,0,0,2.284,2.441,2.891,2.891,0,0,0,2.52-2.6,2.128,2.128,0,0,0-.709-1.5A3.066,3.066,0,0,0,167.158,388.709Z" fill="#1d1d1b"/><path d="M166.922,399.889a1.737,1.737,0,0,0-1.3.433,2.516,2.516,0,0,0-.63,1.968,2.162,2.162,0,0,0,2.166,2.283h.079a2.6,2.6,0,0,0,2.362-2.362,1.994,1.994,0,0,0-.512-1.377,3.029,3.029,0,0,0-2.126-.906" fill="#1d1d1b"/><path d="M166.37,181.127a1.782,1.782,0,0,0-1.732,1.575,1.908,1.908,0,0,0,.551,1.259,1.94,1.94,0,0,0,1.339.63,1.791,1.791,0,0,0,1.851-1.653,2.014,2.014,0,0,0-2.009-1.772" fill="#1d1d1b"/></g></svg>