<svg xmlns="http://www.w3.org/2000/svg" width="110" height="23.913" viewBox="0 0 110 23.913"><path d="M4.053,0h14.54L17.56,4.92H10.276l-.45,2.012h6.728l-1.062,4.92H8.763l-.45,2.117h7.523l-1.062,4.92H0ZM24.51,14.964,22.1,18.888H15l5.538-7.064L18.2,5.754h6.784l.74,3.5,1.935-3.5h6.784l-4.693,6.069,2.624,7.064H25.594ZM42.047,5.754H36.009l-3.92,18.159H38.5l1.346-6.241a4.071,4.071,0,0,0,3.6,1.6c2.886,0,5.849-1.83,6.911-6.8,1.006-4.654-.767-7.114-4-7.114a6.086,6.086,0,0,0-4.554,1.913Zm-.267,9.812a1.058,1.058,0,0,1-1.112-1.2A7.794,7.794,0,0,1,40.9,12.7h0l.076-.379A8.183,8.183,0,0,1,41.8,9.784a1.484,1.484,0,0,1,1.351-.708c1.379,0,1.223,1.465.823,3.245C43.532,14.416,43.1,15.566,41.78,15.566ZM53.468,5.754h6.25l-.161,1.437a4.4,4.4,0,0,1,2.964-1.6,3.05,3.05,0,0,1,1.618.365L63.1,10.718a9.332,9.332,0,0,0-2.6-.365A1.939,1.939,0,0,0,58.523,12l-1.485,6.882H50.632Zm15.5,13.526c4.977,0,7.629-1.62,8.741-4.6H72.09a2.025,2.025,0,0,1-1.879,1.36c-1.268,0-1.668-.652-1.323-2.172l.078-.392h9.164l.183-.89c1.012-4.682-.845-7.219-5.877-7.219-4.771,0-8.374,2.355-9.353,6.882C61.948,17.556,65.073,19.281,68.965,19.281ZM73,10.519l-.028.182H69.576l.028-.182a2.163,2.163,0,0,1,2.146-1.913C72.757,8.607,73.263,9.265,73,10.519ZM88.76,9.812c.133-.652.106-1.023-.056-1.233a1.127,1.127,0,0,0-.9-.287c-1.062,0-1.457.392-1.59.967-.106.575.078.862,1.724,1.1,5.032.708,6.172,1.7,5.644,4.262-.634,2.852-2.991,4.654-8.29,4.654-4.315,0-6.7-1.255-6.011-4.759h5.777a2.091,2.091,0,0,0,.106,1.437,1.072,1.072,0,0,0,.979.392,1.354,1.354,0,0,0,1.535-1.122c.078-.392,0-.813-.767-.967-.141-.027-.292-.058-.509-.1h0c-.4-.081-1.02-.209-2.221-.445-3.125-.63-4.187-1.542-3.681-3.952.528-2.4,2.886-4.395,7.629-4.395,4.1,0,6.728,1,6.094,4.45Zm15.63-1.233c.161.21.189.58.056,1.233h5.46c.634-3.455-1.991-4.45-6.094-4.45-4.743,0-7.1,1.99-7.629,4.395-.506,2.41.556,3.322,3.681,3.952,1.2.236,1.823.363,2.221.445.217.045.368.075.509.1.767.155.845.575.767.967a1.354,1.354,0,0,1-1.534,1.122,1.073,1.073,0,0,1-.979-.392,2.1,2.1,0,0,1-.106-1.437H94.965c-.689,3.5,1.7,4.759,6.011,4.759,5.3,0,7.657-1.8,8.29-4.654.529-2.559-.611-3.554-5.643-4.262-1.646-.238-1.83-.525-1.724-1.1.133-.575.528-.967,1.59-.967A1.127,1.127,0,0,1,104.39,8.579Z" fill="#222" fill-rule="evenodd"/></svg>