<svg xmlns="http://www.w3.org/2000/svg" xmlns:xlink="http://www.w3.org/1999/xlink" width="178.889" height="180" viewBox="0 0 178.889 180"><defs><clipPath id="a"><rect width="178.889" height="180" fill="#fff"/></clipPath></defs><g clip-path="url(#a)"><path d="M5.089,93.664a4.608,4.608,0,0,0-2.6,3.29c-.417,2.19-.644,4.741.806,7.14.133.228.265.455.389.692s.4.73.635,1.09a9.762,9.762,0,0,0,5.373,4.172h.1c.843.237,1.7.484,2.578.673l-.294.1a6.722,6.722,0,0,0-4.549,7.254,9.335,9.335,0,0,0,3.525,6.742,11.6,11.6,0,0,0,4.369,2.2,61.673,61.673,0,0,0,14.888,2.01h2.246c8.529,0,16.868-.076,24.933-.218,4.918-.086,9.9-.4,14.727-.692h.133c1.478-.1,2.966-.266,4.407-.427,1.185-.133,2.407-.276,3.611-.37,6.8-.531,13.646-1.537,20.261-2.513l5.231-.758c2.966-.428,5.951-1.119,8.529-1.727,2.388-.559,4.852-1.232,7.334-1.991,2.17-.673,4.34-1.45,6.444-2.19l1.393-.5a65.789,65.789,0,0,0,13.2-5.784A59.922,59.922,0,0,0,155.88,101.43a85.476,85.476,0,0,0,11.864-16.6,43.578,43.578,0,0,0,3.479-7.719l.094-.3c.312-1.024.644-2.086,1.052-3.072a64.4,64.4,0,0,0,3.42-11.379,91.544,91.544,0,0,0,1.441-13.047l.057-.825c.341-5.452.5-11.009.654-16.376v-.247c.094-3.423.122-21.7-.341-27.84a2.936,2.936,0,0,0-1.488-2.314,2.36,2.36,0,0,0-2.474,0c-1.572.948-2.132,3.651-1.668,7.984.19,1.773,0,11.331-.1,19.021-.077,4.741-.142,8.9-.133,10.772.057,6.742-.1,13.967-1.743,21.231a54.32,54.32,0,0,1-3.184,10.705c-.948,2.077-1.942,4.286-3.032,6.438-3.013,5.993-5.809,10.857-9.628,15.172-.749.834-1.431,1.735-2.094,2.6-.493.654-1,1.308-1.527,1.9l-.691.825c-2.388,2.845-4.643,5.575-7.742,7.462l-1.687,1.024c-1.366.834-2.73,1.669-4.113,2.494a8.851,8.851,0,0,1-1.544.692l-3.251,1.137c-4.738,1.669-9.637,3.4-14.584,4.609-.947.218-1.819.464-2.719.711-1.488.4-3.033.816-4.549,1.109-4.738.9-10.3,1.9-15.94,2.769-2.113.323-4.293.531-6.406.721-1.744.171-3.544.341-5.307.569-5.364.7-10.851.948-16.11,1.28h-.559l-2.843.18-2.388.142H59.3c-.872.057-1.706.114-2.53.094-1.63,0-3.26-.066-4.89-.1-2.227-.058-4.539-.114-6.814-.123H30.505a62.3,62.3,0,0,1-12.822-.949,11.364,11.364,0,0,1-4.35-1.527,2.894,2.894,0,0,1-1.317-1.9,2.714,2.714,0,0,1,.682-2.068,4.024,4.024,0,0,1,1.327-1.194,15.215,15.215,0,0,1,3.554-1.2c1.9-.341,3.791-.863,5.591-1.366l1.3-.351a3.362,3.362,0,0,0,2.028-1.716,2.466,2.466,0,0,0,.085-2.219,2.388,2.388,0,0,0-1.668-1.394c-1.488-.313-2.995-.531-4.141-.692l-3.478-.436c-1.9-.237-3.9-.484-5.847-.778a5.39,5.39,0,0,1-2.919-1.233,8.421,8.421,0,0,1-2.019-3.12c-.407-.948-.227-1.422,0-1.707a4.35,4.35,0,0,1,2.7-1.84,59.366,59.366,0,0,1,6.321-.948,38.759,38.759,0,0,1,3.933,0h2.142a2.293,2.293,0,0,0,1.8-.673,2.362,2.362,0,0,0,.54-1.83A2.492,2.492,0,0,0,21.3,91.54l-2.758-.152c-1.336-.076-2.672-.142-4.009-.237A18.282,18.282,0,0,1,7.06,89.492a3.192,3.192,0,0,1-1.042-.759A8.035,8.035,0,0,1,4.7,83.158a1.555,1.555,0,0,1,.294-.588,3.7,3.7,0,0,1,2.284-1.536c.616-.142,1.251-.237,1.9-.341l1.128-.18a44.29,44.29,0,0,1,8.093-.493,20.246,20.246,0,0,0,2.53-.18l.578-.066a1.734,1.734,0,0,0,1.639-1.384,2.845,2.845,0,0,0-.521-2.522,2.738,2.738,0,0,0-2.293-.948,18.34,18.34,0,0,1-4.738-.427c-.948-.209-1.981-.36-2.947-.5l-.711-.1a15.708,15.708,0,0,1-6.3-2.608,1.773,1.773,0,0,1-.559-.664,6.736,6.736,0,0,1-.625-4.077A1.811,1.811,0,0,1,5.734,64.99a20.136,20.136,0,0,1,8.529-1.223c1.791.133,3.7.218,6.188.275a4.016,4.016,0,0,0,1.706-.493,2.987,2.987,0,0,0,1.639-3.12c-.085-1.527-1.412-1.982-2.2-2.257l-1.26-.427a31.376,31.376,0,0,1-3.26-1.195,26.114,26.114,0,0,1-2.843-1.536c-.455-.266-.948-.54-1.374-.8a21.923,21.923,0,0,1-5.3-4.333,5.189,5.189,0,0,1-1.573-3.793,22.474,22.474,0,0,1,.644-3.641l.085-.4L6.89,43c.133.73.275,1.479.464,2.219a7.394,7.394,0,0,0,5.686,5.49,6.515,6.515,0,0,0,3.175-.161,7.958,7.958,0,0,0,4.625-3.954c.635-1.015,1.2-2.048,1.8-3.139l.483-.891a6.582,6.582,0,0,1,.7.142l3.791,1.005L32.164,44.9a7.473,7.473,0,0,0,1.7.237h2.578c1.061,0,2.123,0,3.175.066,1.63.057,3.25.133,4.871.2,2.151.095,4.293.19,6.444.256s3.933,0,5.686,0c2.672-.133,5.591-.332,9.183-.626,2.075-.171,4.141-.4,6.169-.673a40.713,40.713,0,0,0,6-1.441c.635-.19,1.27-.379,1.9-.55a24.008,24.008,0,0,0,15.162-12.8,36.812,36.812,0,0,0,2.843-8c.834-3.224.483-10.971.085-17.352l-.066-1.015A3.166,3.166,0,0,0,95.041.132a1.9,1.9,0,0,0-2.492,2.314,6.034,6.034,0,0,0,.076.711,15.634,15.634,0,0,1,.133,1.707c0,1.147.057,2.494.095,3.926.1,4.125.237,9.245-.114,11.379a21.126,21.126,0,0,1-2.085,6.742c-2.009,3.641-5.259,6.524-9.941,8.818a42.342,42.342,0,0,1-5.828,2.143l-.673.209a28.282,28.282,0,0,1-5.269,1.29c-4.274.455-8.529.768-12.594.948a37.751,37.751,0,0,1-4.236-.152c-.948-.066-1.981-.142-2.985-.161-2.54-.057-5.079-.085-7.581-.114-2.1,0-4.217-.047-6.321-.085a13.928,13.928,0,0,1-2.843-.294c-3.146-.683-6.3-1.422-9.372-2.19-1.962-.484-3.952-1.043-5.875-1.583l-1.118-.313A24.751,24.751,0,0,0,10,34.324a5.979,5.979,0,0,0-5.411,2.74A14.666,14.666,0,0,0,1.744,47.306,10.623,10.623,0,0,0,4.8,54.076l.275.266A37.917,37.917,0,0,0,10.4,58.808l-.635.1a39.016,39.016,0,0,0-4.454.948,6.757,6.757,0,0,0-4.264,3.281,10.283,10.283,0,0,0,2.9,12.848c.341.247.682.474,1.033.692-.407.218-.806.446-1.2.711A7.341,7.341,0,0,0,.417,85.187c.284,1.375.644,2.845,1.08,4.333A6.845,6.845,0,0,0,5,93.749ZM15.6,45.8a1.734,1.734,0,0,1-1.023.123c-2.18-.654-3.288-1.669-3.686-3.376l-.152-.626a11.192,11.192,0,0,1-.417-2.285,3.239,3.239,0,0,1,.948.152l.389.085c1.943.427,3.923.948,5.828,1.4l1.545.389C18.29,43.371,17.361,45,15.561,45.8" transform="translate(-0.01 0.001)" fill="#1d1d1b"/><path d="M113.976,68.847,115.87,70.3l.418-.313.322-.218a6.1,6.1,0,0,0,.729-.55l.948-.844c1.138-1.053,2.312-2.143,3.431-3.262s2.246-2.285,3.363-3.433c1.347-1.384,2.692-2.769,4.066-4.125a3.216,3.216,0,0,0,.56-4.324,1.7,1.7,0,0,0-1.176-.872,1.754,1.754,0,0,0-1.431.446,8.612,8.612,0,0,0-.948.948A124.269,124.269,0,0,1,115.606,64.04a4.389,4.389,0,0,0-1.716,4.589Z" transform="translate(12.641 5.816)" fill="#1d1d1b"/><path d="M178.691,142.213a4.531,4.531,0,0,0-.473-2.03c-.132-.208-.256-.427-.408-.626a3.522,3.522,0,0,0-1.668-1.431q-2.34-.853-4.672-1.783c-1.687-.663-3.354-1.366-5.031-2.039-1.033-.417-2.086-.8-3.118-1.2-1.678-.664-3.346-1.384-5.042-1.992-1.9-.692-3.867-1.251-5.78-1.9-3.052-1.081-6.084-2.2-9.108-3.329-.407-.161-.948,4.314-.663,4.552a5.448,5.448,0,0,0,1.374.9c1.971.807,3.971,1.583,5.97,2.323,1.374.512,2.777.948,4.16,1.413.891.3,1.763.663,2.653.948l6.426,2.37a2.594,2.594,0,0,1,.54.389l-.066.171h-.721c-1.364,0-2.729,0-4.093.067-1.611.066-3.232.2-4.842.274-2.446.114-4.9.19-7.344.3-1.9.1-3.724.219-5.591.322-1.062.067-2.132.142-3.2.2s-1.9,0-2.843.084c-2.947.219-39.47.493-42.417.721-1.024.086-2.056.057-3.08.123-3.26.237-6.51.521-9.761.73-2.919.18-5.838.284-8.756.437-.891.047-1.772.151-2.653.2s-1.668,0-2.5,0h-.749c-1.677.132-22.9.293-24.573.408-.948.057-1.9,0-2.843.067l-7.259.446c-2.255.142-4.52.227-6.776.4-2.843.209-5.686.483-8.576.749-.4,0-.72,0-.881-.341a9.886,9.886,0,0,0,.872-.588c.862-.7,1.706-1.432,2.578-2.133,1.279-1.014,2.6-1.991,3.857-3.034.806-.663,1.516-1.451,2.331-2.114a5.623,5.623,0,0,0,2.265-3.386c.057-.331-2.976-3.034-3.393-2.683-1.279,1.081-3.942,3.158-5.25,4.2-.758.607-1.573,1.157-2.331,1.763-1.7,1.366-3.355,2.769-5.061,4.124A99.88,99.88,0,0,0,1.764,148.7a4.04,4.04,0,0,0,.1,1.962,4.41,4.41,0,0,0,2.549,2.846c1.668.616,3.241,1.479,4.861,2.219,1.061.492,2.151.948,3.2,1.431,1.554.749,3.07,1.564,4.625,2.313,1.81.873,3.63,1.708,5.44,2.57.5.237.948.56,1.469.8a48.082,48.082,0,0,1,5.506,3.148c.654.418,3-3.792,2.2-4.162-1.734-.834-3.412-1.773-5.108-2.674s-3.184-1.707-4.8-2.512-3.051-1.376-4.558-2.106c-2.369-1.147-4.738-2.323-7.1-3.5a3.439,3.439,0,0,1-.4-.266v-.18a3.084,3.084,0,0,0,.881-.086c2.379-.266,4.738-.55,7.136-.787,2.047-.209,4.1-.37,6.169-.521,1.9-.142,3.838-.228,5.762-.361,2.947-.208,5.885-.464,8.832-.634,2.777-.171,25.1-.266,27.889-.389a24.558,24.558,0,0,1,2.521-.219,22.9,22.9,0,0,0,2.644-.227c1.09-.058,2.18,0,3.26-.114,1.611-.094,3.222-.247,4.833-.36.768-.067,1.545-.1,2.322-.152s1.658-.076,2.483-.132c1.365-.086,2.72-.19,4.075-.266,1.156-.067,2.322-.057,3.478-.152,1.81-.142,3.6-.35,5.411-.5.711-.057,1.431,0,2.142-.057,1.9-.133,37.461-.294,39.394-.437.8-.057,1.592-.057,2.389-.113,1.724-.123,3.44-.284,5.164-.4.768-.057,1.544,0,2.322-.076l1.61-.076a13.263,13.263,0,0,0,2.37-.142,24.629,24.629,0,0,1,2.777,0c1.43,0,2.842-.094,4.283-.142.948,0,1.81-.1,2.719-.067a22.234,22.234,0,0,0,4.123-.123c.331,0,.587,0,.758.351-.209.171-.4.332-.607.474-1.118.778-2.256,1.536-3.364,2.322-1.611,1.148-3.222,2.314-4.813,3.48s-3.279,2.419-4.909,3.651c-1.327,1.006-2.626,2.067-3.952,3.082a1.658,1.658,0,0,0-.569.682c-.246.531,3.611,3.574,4.568,3.309.636-.54,3.791-3.053,4.482-3.537.948-.7,1.9-1.517,2.919-2.152s2.048-1.4,3.061-2.124c.768-.54,1.563-1.042,2.266-1.65s1.3-.814,1.894-1.261c1.791-1.27,3.63-2.483,5.43-3.792a20.361,20.361,0,0,0,2.2-1.726c.417-.4,2.672-2,2.511-3.034" transform="translate(0.188 13.987)" fill="#1d1d1b"/></g></svg>