<svg xmlns="http://www.w3.org/2000/svg" xmlns:xlink="http://www.w3.org/1999/xlink" width="180" height="180" viewBox="0 0 180 180"><defs><clipPath id="a"><rect width="180" height="180" fill="#fff"/></clipPath></defs><g clip-path="url(#a)"><path d="M179.612,152.648a30.02,30.02,0,0,1-3.162-8.133,58.164,58.164,0,0,0-1.878-6.3l-.718-2.017c-1.076-3.075-1.727-4.916-3.046-8.533-1.376-3.767-2.829-7.592-4.173-11.284-.626-1.667-1.243-3.334-1.869-4.941s-1.151-3.133-1.728-4.7c-1.268-3.475-2.578-7.067-4.031-10.534l-.092-.225c-2.353-5.6-4.773-11.375-8.411-16.433-4.439-6.192-9.931-9.058-16.79-8.725h-1.752l-.05-.217a2.728,2.728,0,0,1-.124-.575c-.643-7.5-1.3-14.917-1.928-22.375-.075-.975-.15-1.958-.208-2.942-.084-1.35-.176-2.758-.326-4.167-.275-2.692-.567-5.367-.835-8.05-.367-3.333-.751-6.725-1.085-10.092a65.162,65.162,0,0,0-2.419-12.758,12.939,12.939,0,0,0-6.117-7.567A16.4,16.4,0,0,0,112.319.106a47.516,47.516,0,0,0-9.063.208C99.676.64,96.013.823,92.475.99c-2.645.125-5.374.258-8.053.45-3.338.233-6.676.608-10.014.967l-3.338.367c-1.227.133-2.5.283-3.688.433-2.378.3-4.832.6-7.252.733a37.221,37.221,0,0,0-8.921,1.708A8.9,8.9,0,0,0,47.537,7.8c-2.095,2.108-2.979,4.958-3.58,7.5a16.324,16.324,0,0,0-.417,4.225,1.666,1.666,0,0,1-.9,1.742,32.925,32.925,0,0,0-8.9,7.5,63.325,63.325,0,0,0-5.967,8.9,33.41,33.41,0,0,0-3.7,10.067c-.776,3.983-1.46,8.033-2.111,11.967-.325,1.9-.643,3.808-.968,5.708-.092.5-.209,1-.334,1.492-.067.275-.142.567-.2.833a1.667,1.667,0,0,1-1.01,1.175c-1.377.692-2.729,1.392-4.014,2.108C10.928,73.515,6.071,76.2,1.2,78.94a2.093,2.093,0,0,0-.985,1.233,5.751,5.751,0,0,0,0,2.175,1.95,1.95,0,0,0,.968,1.5,1.989,1.989,0,0,0,1.794-.083c1.41-.7,2.821-1.45,4.172-2.183l.367-.208c.718-.383,1.427-.775,2.12-1.175,1.335-.75,2.712-1.525,4.106-2.183a72.233,72.233,0,0,0,8.587-4.767,3.182,3.182,0,0,0,1.519-2.767c.109-2.217.275-4.85.651-7.5.392-2.808.9-5.642,1.4-8.383l.367-2.017a37.564,37.564,0,0,1,2.6-9.517,50.815,50.815,0,0,1,2.7-5.183c1.969-3.267,4.348-6.975,7.736-9.667,2.086-1.667,4.331-3.225,6.5-4.717l.943-.658a9.323,9.323,0,0,1,1.577-.833l.643-.283a1.59,1.59,0,0,0,.109.375,7.618,7.618,0,0,0,.351,1.017l.142.35a7.534,7.534,0,0,0,.834,1.567c2.42,3.192,5.733,4.367,10.139,3.583a5.569,5.569,0,0,0,3.088-1.742A11.574,11.574,0,0,0,66.639,19.2a7.037,7.037,0,0,1,.083-.833.585.585,0,0,0,0-.117,4.538,4.538,0,0,1,1.869,4.842,9.5,9.5,0,0,1-3.1,5.075A38.375,38.375,0,0,1,61.8,30.981c-1.077.7-2.195,1.375-3.271,2.042-1.46.875-2.962,1.792-4.389,2.775A19.7,19.7,0,0,0,50.2,39.34c-3.1,3.675-4.857,8.4-5.574,14.875a65.706,65.706,0,0,0-.242,7.242v1.667c0,3.375,0,7.025.109,11.158a34.329,34.329,0,0,1-3.2,15.109,32.808,32.808,0,0,1-4.773,7.225,46.23,46.23,0,0,1-7.243,7.592c-.935.733-1.243,1.575-.834,2.308a3.49,3.49,0,0,0,2.211,1.942,1.025,1.025,0,0,0,.734-.167l.835-.551a24.157,24.157,0,0,0,2.362-1.667,35.828,35.828,0,0,0,9.755-12.791l.1-.225a3.036,3.036,0,0,1,.734-1.133v.334c0,.45.05.833.058,1.216v1.2A20.343,20.343,0,0,0,45.3,96.8l.259,4.075c.35,5.617.718,11.425,1.143,17.141a57.661,57.661,0,0,0,.951,6.566,6.809,6.809,0,0,0,3.78,5.2,11.657,11.657,0,0,1,1.11.634l.334.2a2.513,2.513,0,0,0-.284.208,9.371,9.371,0,0,1-.834.609l-4.965,3.283c-3.488,2.308-7.093,4.684-10.606,7.058-.442.3-.9.583-1.352.834a13.113,13.113,0,0,0-4.4,3.791l-.05.084v.091c.509,1.742.926,2.3,2.453,2.134a2.88,2.88,0,0,0,1.293-.55c2.337-1.558,4.656-3.116,6.985-4.684l5.8-3.892c4.364-2.916,7.919-5.275,11.19-7.416a1.962,1.962,0,0,1,1.1-.325,13.855,13.855,0,0,1,1.761.183c.576.075,1.227.15,1.844.184l1.093.058c2.562.142,5.2.292,7.8.3,1.919,0,3.864-.133,5.75-.274l1.051-.075c2.412-.176,4.882-.392,7.369-.642a1.255,1.255,0,0,1,1.268.476c.309.4.668.833.976,1.324l1.669,2.592c1.552,2.383,3.162,4.833,4.656,7.292l.6.966a52.135,52.135,0,0,1,3.789,6.883c.951,2.25,1.252,2.867,1.427,3.234a31.888,31.888,0,0,1,1.4,3.658c.634,1.708,1.177,3.491,1.669,5.2.367,1.217.759,2.5,1.168,3.684.359,1.066.751,2.133,1.135,3.183.576,1.55,1.177,3.159,1.669,4.767.384,1.308,1.427,4.4,2.837,5a1.354,1.354,0,0,0,.5.1,1.281,1.281,0,0,0,.575-.142,2.5,2.5,0,0,0,1.61-3.233c-.208-.709-.416-1.409-.617-2.117-.919-3.1-1.853-6.309-2.929-9.417-1.2-3.433-1.3-3.691-1.61-4.466-.217-.55-.535-1.375-1.444-3.808-.358-.958-.776-1.909-1.176-2.816l-.3-.667a107.3,107.3,0,0,0-7.369-13.333c-.442-.709-.834-1.425-1.3-2.125-1.144-1.884-2.329-3.834-3.622-5.65-1.5-2.109-3.121-4.167-4.681-6.184-.759-.975-1.527-1.942-2.278-2.925a9.55,9.55,0,0,1-.526-.834l-.159-.266.217-.191.542-.459a10.94,10.94,0,0,0,2.754-13.742c-2.161-3.733-5.182-5.241-9.522-4.733a7.519,7.519,0,0,0-4.523,2.2,3.345,3.345,0,0,1-.484.384,3.635,3.635,0,0,1,3.471-4.625,13.584,13.584,0,0,1,9.613,2.3c2.846,1.817,5.524,3.891,8.253,6.034a73.8,73.8,0,0,1,8.179,7.958l1.444,1.55a53.24,53.24,0,0,1,4.924,6.066c1.786,2.6,3.722,5.142,5.558,7.5A25.028,25.028,0,0,0,117.9,135.1c.718.684,1.535.617,2.4-.183a1.433,1.433,0,0,0,.275-2.134c-.2-.341-.434-.658-.659-.975l-.284-.392-1.852-2.642c-1.836-2.616-3.672-5.225-5.491-7.858a4.016,4.016,0,0,1-.634-1.408q-.5-2.175-.968-4.359c-.526-2.383-1.069-4.849-1.669-7.249a38.309,38.309,0,0,0-7.811-15.425c-2.578-3.075-5.366-5.9-7.744-8.258-2.044-2.033-4.172-4.017-6.308-5.925l-2.07-1.9-.834-.783a23.119,23.119,0,0,1-5.007-5.592,42.039,42.039,0,0,1-3.229-7.567,9.279,9.279,0,0,1-.067-5.092A3.211,3.211,0,0,1,78.6,55.065c-.083.167-.167.342-.242.517-.317.633-.634,1.3-.91,1.967a7.766,7.766,0,0,0,1.093,8.167c1.861,2.383,4.548,3.425,7.986,3.067a10.754,10.754,0,0,0,7.511-4.342c.184-.233.384-.45.584-.683l.175-.2,1.427,1.05c1.144.833,2.229,1.667,3.272,2.5,3.338,2.667,6.259,5.075,9.179,7.592a36.754,36.754,0,0,1,10.281,13.867c.734,1.766,1.352,3.241,2.02,4.716a139.876,139.876,0,0,1,6.884,18.142c.634,2.216,1.018,2.5,3.422,2.449a.656.656,0,0,0,.292-.083h.083a2.431,2.431,0,0,0,.576-2.741c-.142-.45-.292-.892-.434-1.325s-.309-.934-.451-1.4a134.152,134.152,0,0,0-6.575-17.674l-.685-1.534a53.867,53.867,0,0,0-4.731-8.925c-.476-.692-.977-1.358-1.5-2.1l-.609-.833.425-.058a10.3,10.3,0,0,1,1.211-.117c1.034,0,2.095.058,3.112.117h.651a7.617,7.617,0,0,1,4.448,1.667c3.254,2.575,5.449,6.033,7.243,9.083a89.87,89.87,0,0,1,5.191,10.834c.575,1.358,1.176,2.766,1.786,4.166.834,1.841,1.76,3.733,2.879,5.833a1.67,1.67,0,0,0,2.294.917,1.975,1.975,0,0,0,1.119-2.233,15.337,15.337,0,0,0-.743-2.334l-1.3-3.1c-.5-1.166-1.01-2.366-1.494-3.566A135.073,135.073,0,0,0,136,81.748a23.431,23.431,0,0,0-4.924-5.958,2.883,2.883,0,0,1-.376-.392.246.246,0,0,0-.067-.067l.96-.067c.918-.075,1.794-.133,2.629-.25a9.611,9.611,0,0,1,4.64.617,14.885,14.885,0,0,1,6.358,4.75,46.233,46.233,0,0,1,5.466,8.591,179.016,179.016,0,0,1,8.345,19.834c.534,1.466,1.06,2.959,1.552,4.417s1.127,3.225,1.719,4.825c.634,1.725,1.318,3.475,1.969,5.15.776,2.008,1.577,4.067,2.32,6.116,1.4,3.866,1.819,4.9,2.3,6.083.417,1.05.893,2.25,2.154,5.642a54.12,54.12,0,0,1,1.56,5.184,32.3,32.3,0,0,0,2.8,7.791,4.319,4.319,0,0,0,.709,1.033,2.405,2.405,0,0,0,3.037.359c.977-.659,1.1-1.492.451-2.767ZM60.347,25.015c-1.552,1.392-3.522.975-4.9.383-2.128-.925-3.1-2.608-2.946-5.142a25.413,25.413,0,0,1,9.388-2.717c1.669,2.708.367,5.758-1.544,7.5Zm15.53,84.192a6.3,6.3,0,0,1,5.366-3.017,6.381,6.381,0,0,1,2.9.708,4.533,4.533,0,0,1,2.32,3.626,6.494,6.494,0,0,1-1.994,5.974c-.542.517-1.1.984-1.669,1.475l-.668.566-.158-.108a1.385,1.385,0,0,1-.342-.292c-1.051-1.459-2.1-2.934-3.163-4.391-.835-1.183-1.669-2.359-2.5-3.542a.783.783,0,0,1,0-1Zm-.567,7.35c1.16,1.716,2.378,3.483,3.6,5.2.768,1.067,1.619,2.1,2.445,3.1.384.459.759.926,1.135,1.384l.659.833.175.217h-.133a2.8,2.8,0,0,1-.618.142l-.534.058c-1,.083-2.045.175-3.063.2-1.669,0-3.338.125-5.007.217a68.126,68.126,0,0,1-12.768-.133,15.186,15.186,0,0,1-6.434-2.066,5.933,5.933,0,0,1-2.829-4.167c-.484-3.008-.784-5.466-.926-7.758-.192-2.9-.351-5.834-.5-8.692-.217-4.166-.434-8.458-.776-12.692-.067-.767-.125-1.541-.192-2.316-.359-4.209-.709-8.559-.7-12.85V75.656c0-1.917,0-3.892-.133-5.833a104.057,104.057,0,0,1-.084-15.192A20.109,20.109,0,0,1,49.632,50c.175-.583.359-1.158.5-1.742s.334-1.075.509-1.592a18.914,18.914,0,0,0,.643-2.158,4.812,4.812,0,0,1,.7-1.667c.117,2.208.234,4.408.317,6.617,0,16.667,1.6,33.45,3.463,50,.334,2.891.709,6.749,2.211,9.241,3.555,5.908,9.3,4.484,14.912,4.384.835,1.159,1.6,2.334,2.4,3.5Zm30.86-4.017c.125.4.208.834.3,1.258a2.286,2.286,0,0,0,.092.459l-.467-.4a13.87,13.87,0,0,1-1.235-1.108c-.543-.591-1.1-1.166-1.669-1.75l2.5-.125.5,1.667ZM91.432,62.34a5.147,5.147,0,0,1-9.755.792,9.992,9.992,0,0,1-.651-2.158l-.167-.675a6.744,6.744,0,0,1,1.51-4.267c.676-.775,1.035-.833,1.828-.383,1.335.833,2.579,1.667,3.613,2.4.576.408,1.135.833,1.669,1.292s.942.75,1.427,1.1a1.533,1.533,0,0,1,.526,1.9Zm23.107,11.408c-.451.158-.685,0-1.043-.358l-.184-.167-4.173-3.575L105.8,66.765a5.239,5.239,0,0,0-.726-.492l-.176-.1-6.784-5.617-.2-.158c-2.72-2.167-5.532-4.4-8.4-6.467a16.952,16.952,0,0,0-8.528-3.042c-2.979-.283-6.96,2.025-8.345,4.858a11.96,11.96,0,0,0-.943,8.467,4.75,4.75,0,0,1,.1.658v.2l2.829,5.758a36.033,36.033,0,0,0,8.17,9.117c2.4,1.925,4.631,4.017,6.492,5.833a132.131,132.131,0,0,1,9.5,10.284,28.665,28.665,0,0,1,4.957,8.983c.275.775.534,1.566.784,2.359l-2.454.108-2.5.1c-1.827-1.667-3.83-3.334-6.058-5.142a27.181,27.181,0,0,0-8.345-4.65,20.97,20.97,0,0,0-8.587-.833,7.2,7.2,0,0,0-6.133,5.833,13.923,13.923,0,0,0,.684,7.166l-1.243.058a17.58,17.58,0,0,1-6.017-.225,2.5,2.5,0,0,1-1.277-.833,5.874,5.874,0,0,1-1.068-2,26.409,26.409,0,0,1-.993-3.791c-.367-2.258-.985-4.475-1.143-6.767-.083-1.292-.317-2.567-.442-3.842-.234-2.658-.434-5.316-.659-7.966-.217-2.5-.459-5-.709-7.442-.15-1.483-.359-2.958-.492-4.425s-.225-2.958-.342-4.442c-.042-.625-.15-1.258-.209-1.892-.075-.833-.125-1.667-.184-2.5a7.688,7.688,0,0,0-.067-1.242c-.083-1-.234-1.992-.284-2.992-.125-2.367-.192-4.725-.3-7.083-.067-1.667-.134-3.275-.234-4.9-.1-1.75-.242-3.492-.359-5.242-.05-.925-.108-1.842-.159-2.767a36.511,36.511,0,0,1,4.072-2.675l.309-.192a57.928,57.928,0,0,0,7.994-5.325,11.964,11.964,0,0,0,4.256-6.917,9.36,9.36,0,0,0,.184-2.075l2.078-.208c1.369-.133,2.737-.275,4.106-.375s2.7-.108,4.039-.217c2.02-.158,4.022-.375,6.033-.525,2.62-.2,5.232-.4,7.852-.55,2.353-.125,4.706-.358,7.06-.55a22.564,22.564,0,0,1,5.659,0c.934.158,1.886.192,2.8.392a4.054,4.054,0,0,1,2.937,2.25,27.746,27.746,0,0,1,1.052,2.583,2.356,2.356,0,0,1,.092.642q.176,2.408.317,4.842c.05.833.125,1.667.125,2.55a70.779,70.779,0,0,0,.434,8.517c.159,1.408.292,2.833.4,4.25.159,2.092.267,4.167.417,6.275q.275,3.758.592,7.5c.359,4.325.784,8.65,1.219,12.967a15.432,15.432,0,0,0-4.548.833Zm11.049-1.575c-.492.25-.926.467-1.369.65a1.89,1.89,0,0,1-.893.15l-.994-.075c-1.035-13.867-2.954-27.675-3.254-41.575-.084-3.892-.176-8.167-2.72-11.125C112,15.231,103.741,16.723,97.9,16.9c-1.118,0-2.236-.058-3.338,0-1.586.083-3.162.275-4.748.367-1.828.117-3.655.158-5.483.25-.834.058-1.669.15-2.562.242-.659.058-1.318.133-1.978.2a15.035,15.035,0,0,0-1.736.133,40.122,40.122,0,0,1-4.256.725c-.985.125-1.961.192-2.946.242A9.093,9.093,0,0,0,69.7,17.389a20.151,20.151,0,0,0-3.338-3.067,4.6,4.6,0,0,0-2.687-.833,8.248,8.248,0,0,0-2.17.333c-2.821.833-5.658,1.758-8.4,2.675-.885.292-1.761.592-2.654.875-.743.242-1.494.525-2.22.792l-.834.308a.607.607,0,0,1-.05-.183c.134-.542.259-1.075.384-1.617.359-1.533.734-3.117,1.185-4.642a4.17,4.17,0,0,1,2.72-2.608,21.592,21.592,0,0,1,4.172-1.008c1.978-.3,4-.525,5.958-.75l2.12-.233c1.193-.142,2.2-.258,3.138-.333l3.43-.325c2.871-.275,5.841-.55,8.754-.75,2.5-.167,5.007-.283,7.51-.4,1.877-.075,3.822-.158,5.741-.275,1.469-.083,2.946-.2,4.381-.325,1.769-.133,3.6-.283,5.391-.358,2.069-.1,4.173-.125,6.217-.15l3.588-.05a6.73,6.73,0,0,1,5.007,2.3,15.973,15.973,0,0,1,4.315,8.458,97.626,97.626,0,0,1,1.669,16.133l.058,1.067c.359,7.5.726,15.258,1.286,22.875.242,3.433.684,6.908,1.093,10.267q.3,2.358.567,4.725c0,.392.075.792.1,1.192v.45l-.584.292" transform="translate(-0.013 0.002)" fill="#1d1d1b"/><path d="M96.776,10.5a3.484,3.484,0,0,0-2.378.592,2.674,2.674,0,0,0-.835,2.1,2.64,2.64,0,0,0,2.8,2.708h.192a2.673,2.673,0,0,0,1.861-.658,2.5,2.5,0,0,0,.785-1.817A2.677,2.677,0,0,0,96.784,10.5" transform="translate(-11.007 -1.232)" fill="#1d1d1b"/></g></svg>